# xmcd
#
# Track frame offsets:
#	150
#	13958
#	27946
#	44049
#	56897
#	73495
#	84385
#	97675
#	110448
#	120566
#
# Disc length: 1775 seconds
#
# Revision: 1
# Processed by: cddbd v1.5.2PL0 Copyright (c) Steve Scherf et al.
# Submitted via: audiograbber 1.83.01
#
DISCID=8906ed0a
DTITLE=Ricky Skaggs - Waitin' For The Sun To Shine
DYEAR=1981
DGENRE=Country
TTITLE0=If That's The Way You Feel
TTITLE1=Don't Get Above Your Raising
TTITLE2=Your Old Love Letters
TTITLE3=Low And Lonely
TTITLE4=Waitin' For The Sun To Shine
TTITLE5=You May See Me Walkin'
TTITLE6=Crying My Heart Out Over You
TTITLE7=Lost To A Stranger
TTITLE8=I Don't Care
TTITLE9=So Round, So Firm, So Fully Packed
EXTD=
EXTT0=
EXTT1=
EXTT2=
EXTT3=
EXTT4=
EXTT5=
EXTT6=
EXTT7=
EXTT8=
EXTT9=
PLAYORDER=
